<?xml version="1.0" encoding="UTF-8"?><svg xmlns="http://www.w3.org/2000/svg" xmlns:xlink="http://www.w3.org/1999/xlink" width="1482" height="494"><rect fill="white" fill-opacity="0" width="1482" height="494"/><rect fill="white" fill-opacity="0" width="1482" height="494"/><path fill="#007061" d="M-1 431L-1 63Q-1 61.4289 -0.922909 59.8597Q-0.845818 58.2905 -0.691823 56.7269Q-0.537827 55.1634 -0.307297 53.6092Q-0.0767667 52.0551 0.229742 50.5142Q0.536251 48.9733 0.918 47.4493Q1.29975 45.9252 1.75582 44.4218Q2.21189 42.9183 2.74118 41.439Q3.27047 39.9598 3.87171 38.5083Q4.47295 37.0567 5.14468 35.6365Q5.81642 34.2162 6.55704 32.8306Q7.29766 31.445 8.10537 30.0974Q8.91308 28.7498 9.78594 27.4435Q10.6588 26.1372 11.5947 24.8752Q12.5306 23.6133 13.5273 22.3988Q14.524 21.1843 15.5791 20.0202Q16.6342 18.8561 17.7452 17.7452Q18.8561 16.6342 20.0202 15.5791Q21.1843 14.524 22.3988 13.5273Q23.6133 12.5306 24.8752 11.5947Q26.1372 10.6588 27.4435 9.78594Q28.7498 8.91308 30.0974 8.10537Q31.445 7.29766 32.8306 6.55704Q34.2162 5.81642 35.6365 5.14468Q37.0567 4.47295 38.5083 3.87171Q39.9598 3.27047 41.439 2.74118Q42.9183 2.21189 44.4218 1.75582Q45.9252 1.29975 47.4493 0.918Q48.9733 0.536251 50.5142 0.229742Q52.0551 -0.0767667 53.6092 -0.307297Q55.1634 -0.537827 56.7269 -0.691823Q58.2905 -0.845818 59.8597 -0.922909Q61.4289 -1 63 -1L1419 -1Q1420.57 -1 1422.14 -0.922909Q1423.71 -0.845818 1425.27 -0.691823Q1426.84 -0.537827 1428.39 -0.307297Q1429.94 -0.0767667 1431.49 0.229742Q1433.03 0.536251 1434.55 0.918Q1436.07 1.29975 1437.58 1.75582Q1439.08 2.21189 1440.56 2.74118Q1442.04 3.27047 1443.49 3.87171Q1444.94 4.47295 1446.36 5.14468Q1447.78 5.81642 1449.17 6.55704Q1450.55 7.29766 1451.9 8.10537Q1453.25 8.91308 1454.56 9.78594Q1455.86 10.6588 1457.12 11.5947Q1458.39 12.5306 1459.6 13.5273Q1460.82 14.524 1461.98 15.5791Q1463.14 16.6342 1464.25 17.7452Q1465.37 18.8561 1466.42 20.0202Q1467.48 21.1843 1468.47 22.3988Q1469.47 23.6133 1470.41 24.8752Q1471.34 26.1372 1472.21 27.4435Q1473.09 28.7498 1473.89 30.0974Q1474.7 31.445 1475.44 32.8306Q1476.18 34.2162 1476.85 35.6365Q1477.53 37.0567 1478.13 38.5083Q1478.73 39.9598 1479.26 41.439Q1479.79 42.9183 1480.24 44.4218Q1480.7 45.9252 1481.08 47.4493Q1481.46 48.9733 1481.77 50.5142Q1482.08 52.0551 1482.31 53.6092Q1482.54 55.1634 1482.69 56.7269Q1482.85 58.2905 1482.92 59.8597Q1483 61.4289 1483 63L1483 431Q1483 432.571 1482.92 434.14Q1482.85 435.71 1482.69 437.273Q1482.54 438.837 1482.31 440.391Q1482.08 441.945 1481.77 443.486Q1481.46 445.027 1481.08 446.551Q1480.7 448.075 1480.24 449.578Q1479.79 451.082 1479.26 452.561Q1478.73 454.04 1478.13 455.492Q1477.53 456.943 1476.86 458.363Q1476.18 459.784 1475.44 461.169Q1474.7 462.555 1473.89 463.903Q1473.09 465.25 1472.21 466.556Q1471.34 467.863 1470.41 469.125Q1469.47 470.387 1468.47 471.601Q1467.48 472.816 1466.42 473.98Q1465.37 475.144 1464.25 476.255Q1463.14 477.366 1461.98 478.421Q1460.82 479.476 1459.6 480.473Q1458.39 481.469 1457.12 482.405Q1455.86 483.341 1454.56 484.214Q1453.25 485.087 1451.9 485.895Q1450.55 486.702 1449.17 487.443Q1447.78 488.183 1446.36 488.855Q1444.94 489.527 1443.49 490.128Q1442.04 490.729 1440.56 491.259Q1439.08 491.788 1437.58 492.244Q1436.07 492.7 1434.55 493.082Q1433.03 493.464 1431.49 493.77Q1429.94 494.077 1428.39 494.307Q1426.84 494.538 1425.27 494.692Q1423.71 494.846 1422.14 494.923Q1420.57 495 1419 495L63 495Q61.4289 495 59.8597 494.923Q58.2905 494.846 56.7269 494.692Q55.1634 494.538 53.6092 494.307Q52.0551 494.077 50.5142 493.77Q48.9733 493.464 47.4493 493.082Q45.9252 492.7 44.4218 492.244Q42.9183 491.788 41.439 491.259Q39.9598 490.729 38.5083 490.128Q37.0567 489.527 35.6365 488.855Q34.2162 488.184 32.8306 487.443Q31.445 486.702 30.0974 485.895Q28.7498 485.087 27.4435 484.214Q26.1372 483.341 24.8752 482.405Q23.6133 481.469 22.3988 480.473Q21.1843 479.476 20.0202 478.421Q18.8561 477.366 17.7452 476.255Q16.6342 475.144 15.5791 473.98Q14.524 472.816 13.5273 471.601Q12.5306 470.387 11.5947 469.125Q10.6588 467.863 9.78594 466.556Q8.91308 465.25 8.10537 463.903Q7.29766 462.555 6.55704 461.169Q5.81642 459.784 5.14468 458.363Q4.47295 456.943 3.87171 455.492Q3.27047 454.04 2.74118 452.561Q2.21189 451.082 1.75582 449.578Q1.29975 448.075 0.918 446.551Q0.536251 445.027 0.229742 443.486Q-0.0767667 441.945 -0.307297 440.391Q-0.537827 438.837 -0.691823 437.273Q-0.845818 435.71 -0.922909 434.14Q-1 432.571 -1 431Z"/><path fill="none" stroke="#007061" stroke-width="4" stroke-miterlimit="4" d="M3 427L3 67Q3 65.4289 3.07709 63.8597Q3.15418 62.2905 3.30818 60.7269Q3.46217 59.1634 3.6927 57.6092Q3.92323 56.0551 4.22974 54.5142Q4.53625 52.9733 4.918 51.4493Q5.29975 49.9252 5.75582 48.4218Q6.21189 46.9183 6.74118 45.439Q7.27047 43.9598 7.87171 42.5083Q8.47295 41.0567 9.14468 39.6365Q9.81642 38.2162 10.557 36.8306Q11.2977 35.445 12.1054 34.0974Q12.9131 32.7498 13.7859 31.4435Q14.6588 30.1372 15.5947 28.8752Q16.5306 27.6133 17.5273 26.3988Q18.524 25.1843 19.5791 24.0202Q20.6342 22.8561 21.7452 21.7452Q22.8561 20.6342 24.0202 19.5791Q25.1843 18.524 26.3988 17.5273Q27.6133 16.5306 28.8752 15.5947Q30.1372 14.6588 31.4435 13.7859Q32.7498 12.9131 34.0974 12.1054Q35.445 11.2977 36.8306 10.557Q38.2162 9.81642 39.6365 9.14468Q41.0567 8.47295 42.5083 7.87171Q43.9598 7.27047 45.439 6.74118Q46.9183 6.21189 48.4218 5.75582Q49.9252 5.29975 51.4493 4.918Q52.9733 4.53625 54.5142 4.22974Q56.0551 3.92323 57.6092 3.6927Q59.1634 3.46217 60.7269 3.30818Q62.2905 3.15418 63.8597 3.07709Q65.4289 3 67 3L1415 3Q1416.57 3 1418.14 3.07709Q1419.71 3.15418 1421.27 3.30818Q1422.84 3.46217 1424.39 3.6927Q1425.94 3.92323 1427.49 4.22974Q1429.03 4.53625 1430.55 4.918Q1432.07 5.29975 1433.58 5.75582Q1435.08 6.21189 1436.56 6.74118Q1438.04 7.27047 1439.49 7.87171Q1440.94 8.47295 1442.36 9.14468Q1443.78 9.81642 1445.17 10.557Q1446.55 11.2977 1447.9 12.1054Q1449.25 12.9131 1450.56 13.7859Q1451.86 14.6588 1453.12 15.5947Q1454.39 16.5306 1455.6 17.5273Q1456.82 18.524 1457.98 19.5791Q1459.14 20.6342 1460.25 21.7452Q1461.37 22.8561 1462.42 24.0202Q1463.48 25.1843 1464.47 26.3988Q1465.47 27.6133 1466.41 28.8752Q1467.34 30.1372 1468.21 31.4435Q1469.09 32.7498 1469.89 34.0974Q1470.7 35.445 1471.44 36.8306Q1472.18 38.2162 1472.86 39.6365Q1473.53 41.0567 1474.13 42.5083Q1474.73 43.9598 1475.26 45.439Q1475.79 46.9183 1476.24 48.4218Q1476.7 49.9252 1477.08 51.4493Q1477.46 52.9733 1477.77 54.5142Q1478.08 56.0551 1478.31 57.6092Q1478.54 59.1634 1478.69 60.7269Q1478.85 62.2905 1478.92 63.8597Q1479 65.4289 1479 67L1479 427Q1479 428.571 1478.92 430.14Q1478.85 431.71 1478.69 433.273Q1478.54 434.837 1478.31 436.391Q1478.08 437.945 1477.77 439.486Q1477.46 441.027 1477.08 442.551Q1476.7 444.075 1476.24 445.578Q1475.79 447.082 1475.26 448.561Q1474.73 450.04 1474.13 451.492Q1473.53 452.943 1472.86 454.363Q1472.18 455.784 1471.44 457.169Q1470.7 458.555 1469.89 459.903Q1469.09 461.25 1468.21 462.556Q1467.34 463.863 1466.41 465.125Q1465.47 466.387 1464.47 467.601Q1463.48 468.816 1462.42 469.98Q1461.37 471.144 1460.25 472.255Q1459.14 473.366 1457.98 474.421Q1456.82 475.476 1455.6 476.473Q1454.39 477.469 1453.12 478.405Q1451.86 479.341 1450.56 480.214Q1449.25 481.087 1447.9 481.895Q1446.55 482.702 1445.17 483.443Q1443.78 484.184 1442.36 484.855Q1440.94 485.527 1439.49 486.128Q1438.04 486.729 1436.56 487.259Q1435.08 487.788 1433.58 488.244Q1432.07 488.7 1430.55 489.082Q1429.03 489.464 1427.49 489.77Q1425.94 490.077 1424.39 490.307Q1422.84 490.538 1421.27 490.692Q1419.71 490.846 1418.14 490.923Q1416.57 491 1415 491L67 491Q65.4289 491 63.8597 490.923Q62.2905 490.846 60.7269 490.692Q59.1634 490.538 57.6092 490.307Q56.0551 490.077 54.5142 489.77Q52.9733 489.464 51.4493 489.082Q49.9252 488.7 48.4218 488.244Q46.9183 487.788 45.439 487.259Q43.9598 486.729 42.5083 486.128Q41.0567 485.527 39.6365 484.855Q38.2162 484.184 36.8306 483.443Q35.445 482.702 34.0974 481.895Q32.7498 481.087 31.4435 480.214Q30.1372 479.341 28.8752 478.405Q27.6133 477.469 26.3988 476.473Q25.1843 475.476 24.0202 474.421Q22.8561 473.366 21.7452 472.255Q20.6342 471.144 19.5791 469.98Q18.524 468.816 17.5273 467.601Q16.5306 466.387 15.5947 465.125Q14.6588 463.863 13.7859 462.556Q12.9131 461.25 12.1054 459.903Q11.2977 458.555 10.557 457.169Q9.81642 455.784 9.14468 454.363Q8.47295 452.943 7.87171 451.492Q7.27047 450.04 6.74118 448.561Q6.21189 447.082 5.75582 445.578Q5.29975 444.075 4.918 442.551Q4.53625 441.027 4.22974 439.486Q3.92323 437.945 3.6927 436.391Q3.46217 434.837 3.30818 433.273Q3.15418 431.71 3.07709 430.14Q3 428.571 3 427Z"/><clipPath id="cl_14"><rect x="76.799934" y="74.429604" width="217.57339" height="208.50784"/></clipPath><g clip-path="url(#cl_14)"><path fill="white" transform="matrix(0.906556 0 0 0.906556 76.7999 74.4296)" d="M238.6 61.4C232.5 60.5 226.3 60 220 60C219.3 60 218.7 60 218 60.1C211.2 60.1 204.5 60.8 198 62C195.7 52.2 191.6 43 186 35C182.1 29.2 177.5 24 172.2 19.5C158.2 7.4 139.9 0 120 0C100.1 0 81.8 7.4 67.8 19.5C62.5 24 57.9 29.2 54 35C48.4 43 44.3 52.2 42 62C35.5 60.8 28.8 60.1 22 60.1C21.3 60 20.7 60 20 60C13.7 60 7.5 60.5 1.4 61.4C0.5 67.5 0 73.7 0 80C0 80.7 0 81.3 0.1 82C1 140.9 44.7 189.8 101.5 198.6C104.3 199 107.2 199.4 110 199.6L110 230L130 230L130 199.6C132.8 199.4 135.7 199 138.5 198.6C195.3 189.8 239 140.9 239.9 82C240 81.3 240 80.7 240 80C240 73.7 239.5 67.5 238.6 61.4ZM110 20.9L110 49.1C98.7 47.3 88.5 42.3 80.4 35C88.5 27.7 98.7 22.7 110 20.9ZM67.8 50.5C79.4 60.6 94 67.4 110 69.4L110 100.8C97 85.9 80.3 74.3 61.3 67.4C62.6 61.4 64.8 55.7 67.8 50.5ZM110 179.5C106.6 179.2 103.3 178.7 100.1 178C54.5 168.7 20 128.3 20 80C26.9 80 33.6 80.7 40 82C40.9 119 67.1 149.9 102 158C104.6 158.6 107.3 159 110 159.4L110 179.5ZM107.4 138.7C83.1 133.5 64.2 113.5 60.7 88.7C81.5 98 98.6 114.2 109 134.4C109.4 135.1 109.7 135.8 110 136.5L110 139.1C109.1 139 108.2 138.9 107.4 138.7L107.4 138.7ZM130 20.9C141.3 22.7 151.5 27.7 159.6 35C151.5 42.3 141.3 47.3 130 49.1L130 20.9L130 20.9ZM130 69.4C146 67.4 160.6 60.6 172.2 50.5C175.2 55.7 177.4 61.4 178.7 67.4C159.7 74.3 143 85.9 130 100.8L130 69.4ZM130 136.5C130.3 135.8 130.6 135.1 131 134.4C141.4 114.2 158.5 98 179.3 88.7C175.8 113.5 156.9 133.5 132.6 138.7C131.8 138.9 130.9 139 130 139.1L130 136.5L130 136.5ZM139.9 178C136.7 178.7 133.4 179.2 130 179.5L130 159.4C132.7 159 135.4 158.6 138 158C172.9 149.9 199.1 119 200 82C206.4 80.7 213.1 80 220 80C220 128.3 185.5 168.7 139.9 178Z"/><path fill="none" stroke="white" stroke-width="1" stroke-miterlimit="4" transform="matrix(0.906556 0 0 0.906556 76.7999 74.4296)" d="M238.6 61.4C232.5 60.5 226.3 60 220 60C219.3 60 218.7 60 218 60.1C211.2 60.1 204.5 60.8 198 62C195.7 52.2 191.6 43 186 35C182.1 29.2 177.5 24 172.2 19.5C158.2 7.4 139.9 0 120 0C100.1 0 81.8 7.4 67.8 19.5C62.5 24 57.9 29.2 54 35C48.4 43 44.3 52.2 42 62C35.5 60.8 28.8 60.1 22 60.1C21.3 60 20.7 60 20 60C13.7 60 7.5 60.5 1.4 61.4C0.5 67.5 0 73.7 0 80C0 80.7 0 81.3 0.1 82C1 140.9 44.7 189.8 101.5 198.6C104.3 199 107.2 199.4 110 199.6L110 230L130 230L130 199.6C132.8 199.4 135.7 199 138.5 198.6C195.3 189.8 239 140.9 239.9 82C240 81.3 240 80.7 240 80C240 73.7 239.5 67.5 238.6 61.4ZM110 20.9L110 49.1C98.7 47.3 88.5 42.3 80.4 35C88.5 27.7 98.7 22.7 110 20.9ZM67.8 50.5C79.4 60.6 94 67.4 110 69.4L110 100.8C97 85.9 80.3 74.3 61.3 67.4C62.6 61.4 64.8 55.7 67.8 50.5ZM110 179.5C106.6 179.2 103.3 178.7 100.1 178C54.5 168.7 20 128.3 20 80C26.9 80 33.6 80.7 40 82C40.9 119 67.1 149.9 102 158C104.6 158.6 107.3 159 110 159.4L110 179.5ZM107.4 138.7C83.1 133.5 64.2 113.5 60.7 88.7C81.5 98 98.6 114.2 109 134.4C109.4 135.1 109.7 135.8 110 136.5L110 139.1C109.1 139 108.2 138.9 107.4 138.7L107.4 138.7ZM130 20.9C141.3 22.7 151.5 27.7 159.6 35C151.5 42.3 141.3 47.3 130 49.1L130 20.9L130 20.9ZM130 69.4C146 67.4 160.6 60.6 172.2 50.5C175.2 55.7 177.4 61.4 178.7 67.4C159.7 74.3 143 85.9 130 100.8L130 69.4ZM130 136.5C130.3 135.8 130.6 135.1 131 134.4C141.4 114.2 158.5 98 179.3 88.7C175.8 113.5 156.9 133.5 132.6 138.7C131.8 138.9 130.9 139 130 139.1L130 136.5L130 136.5ZM139.9 178C136.7 178.7 133.4 179.2 130 179.5L130 159.4C132.7 159 135.4 158.6 138 158C172.9 149.9 199.1 119 200 82C206.4 80.7 213.1 80 220 80C220 128.3 185.5 168.7 139.9 178Z"/></g><path fill="white" transform="matrix(0.906556 0 0 0.906556 76.7999 74.4296)" d="M152.445 385.157C150.871 385.397 148.753 385.639 146.093 385.882C143.43 386.123 140.648 386.245 137.744 386.245C135.322 386.245 132.54 386.033 129.396 385.61C126.248 385.185 123.253 384.008 120.412 382.071C117.567 380.137 115.177 377.172 113.243 373.179C111.306 369.187 110.339 363.623 110.339 356.483L110.339 317.103L96.001 317.103L96.001 300.588L110.339 300.588L110.339 275L130.122 275L130.122 300.588L149.541 300.588L149.541 317.103L130.122 317.103L130.122 351.824C130.122 355.443 130.394 358.335 130.938 360.504C131.483 362.676 132.299 364.332 133.388 365.478C134.477 366.623 135.776 367.375 137.291 367.737C138.802 368.1 140.526 368.279 142.463 368.279L147.908 368.279C149.964 368.279 151.475 368.098 152.445 367.735L152.445 385.157L152.445 385.157Z" fill-rule="evenodd"/><path fill="none" stroke="white" stroke-width="1" stroke-miterlimit="4" transform="matrix(0.906556 0 0 0.906556 76.7999 74.4296)" d="M152.445 385.157C150.871 385.397 148.753 385.639 146.093 385.882C143.43 386.123 140.648 386.245 137.744 386.245C135.322 386.245 132.54 386.033 129.396 385.61C126.248 385.185 123.253 384.008 120.412 382.071C117.567 380.137 115.177 377.172 113.243 373.179C111.306 369.187 110.339 363.623 110.339 356.483L110.339 317.103L96.001 317.103L96.001 300.588L110.339 300.588L110.339 275L130.122 275L130.122 300.588L149.541 300.588L149.541 317.103L130.122 317.103L130.122 351.824C130.122 355.443 130.394 358.335 130.938 360.504C131.483 362.676 132.299 364.332 133.388 365.478C134.477 366.623 135.776 367.375 137.291 367.737C138.802 368.1 140.526 368.279 142.463 368.279L147.908 368.279C149.964 368.279 151.475 368.098 152.445 367.735L152.445 385.157L152.445 385.157Z" fill-rule="evenodd"/><path fill="white" transform="matrix(0.906556 0 0 0.906556 76.7999 74.4296)" d="M216.693 318.917C215.119 318.554 213.818 318.313 212.791 318.192C211.762 318.072 210.46 318.01 208.888 318.01C200.418 318.01 193.943 320.46 189.469 325.36C184.991 330.26 182.754 338.034 182.754 348.68L182.754 385.157L162.971 385.157L162.971 300.588L182.754 300.588L182.754 314.199C183.72 312.265 185.082 310.419 186.837 308.663C188.59 306.911 190.648 305.338 193.008 303.945C195.367 302.556 197.908 301.467 200.631 300.678C203.353 299.894 206.104 299.499 208.888 299.499C212.033 299.499 214.634 299.924 216.693 300.77L216.693 318.917L216.693 318.917Z" fill-rule="evenodd"/><path fill="none" stroke="white" stroke-width="1" stroke-miterlimit="4" transform="matrix(0.906556 0 0 0.906556 76.7999 74.4296)" d="M216.693 318.917C215.119 318.554 213.818 318.313 212.791 318.192C211.762 318.072 210.46 318.01 208.888 318.01C200.418 318.01 193.943 320.46 189.469 325.36C184.991 330.26 182.754 338.034 182.754 348.68L182.754 385.157L162.971 385.157L162.971 300.588L182.754 300.588L182.754 314.199C183.72 312.265 185.082 310.419 186.837 308.663C188.59 306.911 190.648 305.338 193.008 303.945C195.367 302.556 197.908 301.467 200.631 300.678C203.353 299.894 206.104 299.499 208.888 299.499C212.033 299.499 214.634 299.924 216.693 300.77L216.693 318.917L216.693 318.917Z" fill-rule="evenodd"/><path fill="white" transform="matrix(0.906556 0 0 0.906556 76.7999 74.4296)" d="M260.613 369.731C264.362 369.731 267.782 369.005 270.867 367.553C273.952 366.101 276.584 364.167 278.762 361.746C280.94 359.327 282.633 356.483 283.844 353.216C285.051 349.95 285.659 346.502 285.659 342.872C285.659 339.242 285.051 335.795 283.844 332.528C282.633 329.261 280.94 326.42 278.762 323.998C276.584 321.58 273.952 319.643 270.867 318.192C267.782 316.739 264.362 316.013 260.613 316.013C256.861 316.013 253.472 316.739 250.449 318.192C247.423 319.643 244.823 321.58 242.645 323.998C240.467 326.42 238.802 329.261 237.654 332.528C236.503 335.795 235.93 339.242 235.93 342.872C235.93 346.502 236.503 349.95 237.654 353.216C238.802 356.483 240.467 359.327 242.645 361.746C244.823 364.167 247.423 366.101 250.449 367.553C253.472 369.005 256.861 369.731 260.613 369.731ZM305.441 300.589L305.441 385.156L285.658 385.156L285.658 373.724C282.995 377.96 279.215 381.286 274.315 383.705C269.415 386.123 264.484 387.335 259.523 387.335C253.109 387.335 247.241 386.155 241.919 383.796C236.593 381.436 232.027 378.201 228.216 374.086C224.405 369.975 221.438 365.257 219.323 359.932C217.204 354.609 216.147 348.924 216.147 342.872C216.147 336.946 217.204 331.289 219.323 325.905C221.438 320.522 224.405 315.773 228.216 311.658C232.027 307.547 236.593 304.308 241.919 301.95C247.241 299.59 253.109 298.41 259.523 298.41C264.484 298.41 269.415 299.621 274.315 302.04C279.215 304.462 282.995 307.788 285.658 312.021L285.658 300.589L305.441 300.589L305.441 300.589Z" fill-rule="evenodd"/><path fill="none" stroke="white" stroke-width="1" stroke-miterlimit="4" transform="matrix(0.906556 0 0 0.906556 76.7999 74.4296)" d="M260.613 369.731C264.362 369.731 267.782 369.005 270.867 367.553C273.952 366.101 276.584 364.167 278.762 361.746C280.94 359.327 282.633 356.483 283.844 353.216C285.051 349.95 285.659 346.502 285.659 342.872C285.659 339.242 285.051 335.795 283.844 332.528C282.633 329.261 280.94 326.42 278.762 323.998C276.584 321.58 273.952 319.643 270.867 318.192C267.782 316.739 264.362 316.013 260.613 316.013C256.861 316.013 253.472 316.739 250.449 318.192C247.423 319.643 244.823 321.58 242.645 323.998C240.467 326.42 238.802 329.261 237.654 332.528C236.503 335.795 235.93 339.242 235.93 342.872C235.93 346.502 236.503 349.95 237.654 353.216C238.802 356.483 240.467 359.327 242.645 361.746C244.823 364.167 247.423 366.101 250.449 367.553C253.472 369.005 256.861 369.731 260.613 369.731ZM305.441 300.589L305.441 385.156L285.658 385.156L285.658 373.724C282.995 377.96 279.215 381.286 274.315 383.705C269.415 386.123 264.484 387.335 259.523 387.335C253.109 387.335 247.241 386.155 241.919 383.796C236.593 381.436 232.027 378.201 228.216 374.086C224.405 369.975 221.438 365.257 219.323 359.932C217.204 354.609 216.147 348.924 216.147 342.872C216.147 336.946 217.204 331.289 219.323 325.905C221.438 320.522 224.405 315.773 228.216 311.658C232.027 307.547 236.593 304.308 241.919 301.95C247.241 299.59 253.109 298.41 259.523 298.41C264.484 298.41 269.415 299.621 274.315 302.04C279.215 304.462 282.995 307.788 285.658 312.021L285.658 300.589L305.441 300.589L305.441 300.589Z" fill-rule="evenodd"/><path fill="white" transform="matrix(0.906556 0 0 0.906556 76.7999 74.4296)" d="M382.03 331.44C381.423 326.843 379.64 323.123 376.676 320.279C373.71 317.438 368.842 316.014 362.066 316.014C358.192 316.014 354.867 316.74 352.084 318.192C349.3 319.643 346.94 321.612 345.006 324.09C343.069 326.571 341.648 329.415 340.741 332.619C339.833 335.827 339.38 339.243 339.38 342.873C339.38 346.502 339.833 349.95 340.741 353.217C341.648 356.484 343.069 359.327 345.006 361.746C346.94 364.168 349.422 366.102 352.447 367.554C355.471 369.006 359.1 369.731 363.337 369.731C369.144 369.731 373.409 368.524 376.132 366.102C378.855 363.683 380.879 360.357 382.212 356.12L401.995 356.12C401.269 360.475 399.936 364.559 398.002 368.37C396.065 372.181 393.434 375.511 390.106 378.352C386.778 381.196 382.785 383.404 378.129 384.976C373.469 386.547 368.055 387.335 361.885 387.335C354.988 387.335 348.908 386.093 343.645 383.614C338.382 381.136 333.963 377.838 330.396 373.724C326.826 369.613 324.134 364.894 322.319 359.569C320.504 354.246 319.597 348.68 319.597 342.873C319.597 337.188 320.504 331.653 322.319 326.267C324.134 320.886 326.826 316.136 330.396 312.022C333.963 307.91 338.35 304.612 343.554 302.131C348.755 299.653 354.807 298.411 361.703 298.411C368.6 298.411 374.498 299.381 379.399 301.314C384.299 303.251 388.351 305.761 391.559 308.846C394.764 311.931 397.185 315.442 398.818 319.372C400.452 323.305 401.449 327.328 401.812 331.44L382.03 331.44L382.03 331.44Z" fill-rule="evenodd"/><path fill="none" stroke="white" stroke-width="1" stroke-miterlimit="4" transform="matrix(0.906556 0 0 0.906556 76.7999 74.4296)" d="M382.03 331.44C381.423 326.843 379.64 323.123 376.676 320.279C373.71 317.438 368.842 316.014 362.066 316.014C358.192 316.014 354.867 316.74 352.084 318.192C349.3 319.643 346.94 321.612 345.006 324.09C343.069 326.571 341.648 329.415 340.741 332.619C339.833 335.827 339.38 339.243 339.38 342.873C339.38 346.502 339.833 349.95 340.741 353.217C341.648 356.484 343.069 359.327 345.006 361.746C346.94 364.168 349.422 366.102 352.447 367.554C355.471 369.006 359.1 369.731 363.337 369.731C369.144 369.731 373.409 368.524 376.132 366.102C378.855 363.683 380.879 360.357 382.212 356.12L401.995 356.12C401.269 360.475 399.936 364.559 398.002 368.37C396.065 372.181 393.434 375.511 390.106 378.352C386.778 381.196 382.785 383.404 378.129 384.976C373.469 386.547 368.055 387.335 361.885 387.335C354.988 387.335 348.908 386.093 343.645 383.614C338.382 381.136 333.963 377.838 330.396 373.724C326.826 369.613 324.134 364.894 322.319 359.569C320.504 354.246 319.597 348.68 319.597 342.873C319.597 337.188 320.504 331.653 322.319 326.267C324.134 320.886 326.826 316.136 330.396 312.022C333.963 307.91 338.35 304.612 343.554 302.131C348.755 299.653 354.807 298.411 361.703 298.411C368.6 298.411 374.498 299.381 379.399 301.314C384.299 303.251 388.351 305.761 391.559 308.846C394.764 311.931 397.185 315.442 398.818 319.372C400.452 323.305 401.449 327.328 401.812 331.44L382.03 331.44L382.03 331.44Z" fill-rule="evenodd"/><path fill="white" transform="matrix(0.906556 0 0 0.906556 76.7999 74.4296)" d="M450.455 313.292C444.285 313.292 439.141 315.047 435.029 318.555C430.913 322.065 428.857 327.266 428.857 334.162L470.964 334.162C470.964 327.628 469.059 322.518 465.247 318.827C461.435 315.137 456.504 313.292 450.455 313.292ZM428.857 348.862C429.098 351.887 429.643 354.731 430.491 357.391C431.335 360.054 432.637 362.382 434.393 364.378C436.146 366.374 438.414 367.948 441.199 369.096C443.98 370.248 447.429 370.82 451.544 370.82C457.229 370.82 461.344 369.731 463.885 367.554C466.427 365.375 468.301 362.775 469.511 359.75L489.476 359.75C488.869 363.38 487.571 366.859 485.574 370.185C483.578 373.514 480.946 376.446 477.679 378.986C474.412 381.527 470.6 383.554 466.245 385.066C461.889 386.578 456.988 387.335 451.544 387.335C444.404 387.335 438.205 386.183 432.941 383.887C427.677 381.59 423.291 378.442 419.782 374.449C416.272 370.457 413.641 365.739 411.888 360.294C410.132 354.85 409.256 349.043 409.256 342.873C409.256 336.584 410.192 330.714 412.069 325.27C413.943 319.825 416.635 315.106 420.145 311.114C423.654 307.122 428.01 304.008 433.213 301.768C438.414 299.531 444.343 298.411 450.999 298.411C456.444 298.411 461.554 299.381 466.335 301.314C471.114 303.251 475.289 305.942 478.859 309.39C482.426 312.838 485.211 316.862 487.208 321.459C489.203 326.057 490.202 331.077 490.202 336.521C490.202 337.972 490.171 339.697 490.111 341.693C490.049 343.689 489.777 346.08 489.295 348.862L428.857 348.862L428.857 348.862Z" fill-rule="evenodd"/><path fill="none" stroke="white" stroke-width="1" stroke-miterlimit="4" transform="matrix(0.906556 0 0 0.906556 76.7999 74.4296)" d="M450.455 313.292C444.285 313.292 439.141 315.047 435.029 318.555C430.913 322.065 428.857 327.266 428.857 334.162L470.964 334.162C470.964 327.628 469.059 322.518 465.247 318.827C461.435 315.137 456.504 313.292 450.455 313.292ZM428.857 348.862C429.098 351.887 429.643 354.731 430.491 357.391C431.335 360.054 432.637 362.382 434.393 364.378C436.146 366.374 438.414 367.948 441.199 369.096C443.98 370.248 447.429 370.82 451.544 370.82C457.229 370.82 461.344 369.731 463.885 367.554C466.427 365.375 468.301 362.775 469.511 359.75L489.476 359.75C488.869 363.38 487.571 366.859 485.574 370.185C483.578 373.514 480.946 376.446 477.679 378.986C474.412 381.527 470.6 383.554 466.245 385.066C461.889 386.578 456.988 387.335 451.544 387.335C444.404 387.335 438.205 386.183 432.941 383.887C427.677 381.59 423.291 378.442 419.782 374.449C416.272 370.457 413.641 365.739 411.888 360.294C410.132 354.85 409.256 349.043 409.256 342.873C409.256 336.584 410.192 330.714 412.069 325.27C413.943 319.825 416.635 315.106 420.145 311.114C423.654 307.122 428.01 304.008 433.213 301.768C438.414 299.531 444.343 298.411 450.999 298.411C456.444 298.411 461.554 299.381 466.335 301.314C471.114 303.251 475.289 305.942 478.859 309.39C482.426 312.838 485.211 316.862 487.208 321.459C489.203 326.057 490.202 331.077 490.202 336.521C490.202 337.972 490.171 339.697 490.111 341.693C490.049 343.689 489.777 346.08 489.295 348.862L428.857 348.862L428.857 348.862Z" fill-rule="evenodd"/><path fill="white" transform="matrix(0.906556 0 0 0.906556 76.7999 74.4296)" d="M502.905 371.727C502.905 367.615 504.325 364.136 507.169 361.292C510.01 358.45 513.431 357.027 517.423 357.027C521.536 357.027 525.015 358.45 527.86 361.292C530.701 364.136 532.124 367.615 532.124 371.727C532.124 375.719 530.701 379.139 527.86 381.98C525.015 384.824 521.536 386.245 517.423 386.245C513.431 386.245 510.01 384.824 507.169 381.98C504.325 379.139 502.905 375.719 502.905 371.727L502.905 371.727Z" fill-rule="evenodd"/><path fill="none" stroke="white" stroke-width="1" stroke-miterlimit="4" transform="matrix(0.906556 0 0 0.906556 76.7999 74.4296)" d="M502.905 371.727C502.905 367.615 504.325 364.136 507.169 361.292C510.01 358.45 513.431 357.027 517.423 357.027C521.536 357.027 525.015 358.45 527.86 361.292C530.701 364.136 532.124 367.615 532.124 371.727C532.124 375.719 530.701 379.139 527.86 381.98C525.015 384.824 521.536 386.245 517.423 386.245C513.431 386.245 510.01 384.824 507.169 381.98C504.325 379.139 502.905 375.719 502.905 371.727L502.905 371.727Z" fill-rule="evenodd"/><path fill="white" d="M636 20L1419 20Q1420.08 20 1421.16 20.053Q1422.24 20.106 1423.31 20.2119Q1424.39 20.3177 1425.46 20.4762Q1426.52 20.6347 1427.58 20.8454Q1428.64 21.0562 1429.69 21.3186Q1430.74 21.5811 1431.77 21.8946Q1432.81 22.2082 1433.82 22.5721Q1434.84 22.9359 1435.84 23.3493Q1436.84 23.7626 1437.81 24.2245Q1438.79 24.6863 1439.74 25.1955Q1440.69 25.7046 1441.62 26.2599Q1442.55 26.8152 1443.44 27.4153Q1444.34 28.0154 1445.21 28.6589Q1446.08 29.3023 1446.91 29.9875Q1447.75 30.6728 1448.55 31.3981Q1449.35 32.1235 1450.11 32.8873Q1450.88 33.6511 1451.6 34.4514Q1452.33 35.2517 1453.01 36.0867Q1453.7 36.9216 1454.34 37.7892Q1454.98 38.6568 1455.58 39.5549Q1456.18 40.453 1456.74 41.3795Q1457.3 42.3059 1457.8 43.2585Q1458.31 44.2111 1458.78 45.1876Q1459.24 46.164 1459.65 47.1619Q1460.06 48.1598 1460.43 49.1768Q1460.79 50.1938 1461.11 51.2275Q1461.42 52.2611 1461.68 53.3089Q1461.94 54.3566 1462.15 55.416Q1462.37 56.4754 1462.52 57.5439Q1462.68 58.6123 1462.79 59.6872Q1462.89 60.7622 1462.95 61.841Q1463 62.9199 1463 64L1463 431Q1463 432.08 1462.95 433.159Q1462.89 434.238 1462.79 435.313Q1462.68 436.388 1462.52 437.456Q1462.37 438.525 1462.15 439.584Q1461.94 440.643 1461.68 441.691Q1461.42 442.739 1461.11 443.772Q1460.79 444.806 1460.43 445.823Q1460.06 446.84 1459.65 447.838Q1459.24 448.836 1458.78 449.812Q1458.31 450.789 1457.8 451.741Q1457.3 452.694 1456.74 453.62Q1456.18 454.547 1455.58 455.445Q1454.98 456.343 1454.34 457.211Q1453.7 458.078 1453.01 458.913Q1452.33 459.748 1451.6 460.549Q1450.88 461.349 1450.11 462.113Q1449.35 462.876 1448.55 463.602Q1447.75 464.327 1446.91 465.012Q1446.08 465.698 1445.21 466.341Q1444.34 466.985 1443.44 467.585Q1442.55 468.185 1441.62 468.74Q1440.69 469.295 1439.74 469.804Q1438.79 470.314 1437.81 470.775Q1436.84 471.237 1435.84 471.651Q1434.84 472.064 1433.82 472.428Q1432.81 472.792 1431.77 473.105Q1430.74 473.419 1429.69 473.681Q1428.64 473.944 1427.58 474.155Q1426.52 474.365 1425.46 474.524Q1424.39 474.682 1423.31 474.788Q1422.24 474.894 1421.16 474.947Q1420.08 475 1419 475L636 475L636 20Z"/><path d="M810.616 213.936Q798.018 213.936 787.852 208.369Q777.686 202.773 771.856 192.871Q766.055 182.969 766.055 170.488Q766.055 158.008 771.856 148.135Q777.686 138.232 787.852 132.666Q798.018 127.07 810.733 127.07Q821.427 127.07 830.069 130.908Q838.712 134.746 844.6 141.953L832.354 153.467Q824.005 143.623 811.671 143.623Q804.024 143.623 798.018 147.051Q792.042 150.449 788.673 156.572Q785.333 162.695 785.333 170.488Q785.333 178.311 788.673 184.434Q792.042 190.527 798.018 193.955Q804.024 197.383 811.671 197.383Q824.005 197.383 832.354 187.422L844.6 198.936Q838.712 206.26 830.01 210.098Q821.309 213.936 810.616 213.936ZM911.636 194.512L873.404 194.512L866.109 212.5L846.597 212.5L883.277 128.506L902.086 128.506L938.912 212.5L918.902 212.5L911.636 194.512ZM905.631 179.746L892.564 147.578L879.527 179.746L905.631 179.746ZM999.926 212.5L984.077 189.092L983.11 189.092L966.528 189.092L966.528 212.5L947.485 212.5L947.485 128.506L983.11 128.506Q994.067 128.506 1002.12 132.227Q1010.18 135.947 1014.52 142.803Q1018.88 149.629 1018.88 158.975Q1018.88 168.35 1014.46 175.146Q1010.06 181.914 1001.95 185.488L1020.4 212.5L999.926 212.5ZM999.575 158.975Q999.575 151.914 995.092 148.135Q990.639 144.326 982.055 144.326L966.528 144.326L966.528 173.623L982.055 173.623Q990.639 173.623 995.092 169.785Q999.575 165.947 999.575 158.975ZM1094.36 168.818Q1101.42 171.104 1105.4 176.436Q1109.41 181.768 1109.41 189.59Q1109.41 200.605 1101.01 206.553Q1092.6 212.5 1076.48 212.5L1033.92 212.5L1033.92 128.506L1074.14 128.506Q1089.2 128.506 1097.26 134.395Q1105.31 140.254 1105.31 150.332Q1105.31 156.455 1102.41 161.26Q1099.54 166.064 1094.36 168.818ZM1052.84 143.154L1052.84 162.93L1071.8 162.93Q1078.86 162.93 1082.49 160.41Q1086.12 157.891 1086.12 152.969Q1086.12 148.047 1082.49 145.615Q1078.86 143.154 1071.8 143.154L1052.84 143.154ZM1075.08 197.852Q1082.61 197.852 1086.42 195.332Q1090.25 192.812 1090.25 187.539Q1090.25 177.109 1075.08 177.109L1052.84 177.109L1052.84 197.852L1075.08 197.852ZM1163.75 213.936Q1150.92 213.936 1140.63 208.311Q1130.35 202.656 1124.52 192.754Q1118.72 182.852 1118.72 170.488Q1118.72 158.154 1124.52 148.252Q1130.35 138.35 1140.63 132.725Q1150.92 127.07 1163.75 127.07Q1176.55 127.07 1186.78 132.725Q1197.03 138.35 1202.89 148.252Q1208.78 158.154 1208.78 170.488Q1208.78 182.852 1202.89 192.754Q1197.03 202.656 1186.78 208.311Q1176.55 213.936 1163.75 213.936ZM1163.75 197.383Q1171.04 197.383 1176.9 193.955Q1182.79 190.527 1186.13 184.434Q1189.5 178.311 1189.5 170.488Q1189.5 162.695 1186.13 156.572Q1182.79 150.449 1176.9 147.051Q1171.04 143.623 1163.75 143.623Q1156.45 143.623 1150.56 147.051Q1144.71 150.449 1141.34 156.572Q1138 162.695 1138 170.488Q1138 178.311 1141.34 184.434Q1144.71 190.527 1150.56 193.955Q1156.45 197.383 1163.75 197.383ZM1298.62 128.506L1298.62 212.5L1282.98 212.5L1241.93 161.494L1241.93 212.5L1223.12 212.5L1223.12 128.506L1238.89 128.506L1279.81 179.512L1279.81 128.506L1298.62 128.506Z"/><path d="M846.71 236.506L846.71 320.5L831.065 320.5L790.02 269.494L790.02 320.5L771.212 320.5L771.212 236.506L786.973 236.506L827.901 287.512L827.901 236.506L846.71 236.506ZM929.977 304.914L929.977 320.5L866.227 320.5L866.227 236.506L928.454 236.506L928.454 252.092L885.153 252.092L885.153 270.344L923.386 270.344L923.386 285.461L885.153 285.461L885.153 304.914L929.977 304.914ZM981.725 321.936Q964.059 321.936 954.244 311.975Q944.43 302.014 944.43 283.527L944.43 236.506L963.473 236.506L963.473 282.824Q963.473 305.383 981.842 305.383Q990.777 305.383 995.465 299.934Q1000.18 294.455 1000.18 282.824L1000.18 236.506L1018.99 236.506L1018.99 283.527Q1018.99 302.014 1009.18 311.975Q999.361 321.936 981.725 321.936ZM1054.85 252.326L1028.51 252.326L1028.51 236.506L1100.26 236.506L1100.26 252.326L1073.89 252.326L1073.89 320.5L1054.85 320.5L1054.85 252.326ZM1162.91 320.5L1147.06 297.092L1146.09 297.092L1129.51 297.092L1129.51 320.5L1110.47 320.5L1110.47 236.506L1146.09 236.506Q1157.05 236.506 1165.11 240.227Q1173.17 243.947 1177.5 250.803Q1181.87 257.629 1181.87 266.975Q1181.87 276.35 1177.44 283.146Q1173.05 289.914 1164.93 293.488L1183.39 320.5L1162.91 320.5ZM1162.56 266.975Q1162.56 259.914 1158.08 256.135Q1153.62 252.326 1145.04 252.326L1129.51 252.326L1129.51 281.623L1145.04 281.623Q1153.62 281.623 1158.08 277.785Q1162.56 273.947 1162.56 266.975ZM1251.13 302.512L1212.9 302.512L1205.6 320.5L1186.09 320.5L1222.77 236.506L1241.58 236.506L1278.41 320.5L1258.4 320.5L1251.13 302.512ZM1245.12 287.746L1232.06 255.578L1219.02 287.746L1245.12 287.746ZM1286.98 236.506L1306.02 236.506L1306.02 304.65L1347.3 304.65L1347.3 320.5L1286.98 320.5L1286.98 236.506Z"/><path d="M785.723 380.145L785.723 384.5L765.137 384.5L765.137 356.502L785.167 356.502L785.167 360.857L770.235 360.857L770.235 368.143L783.487 368.143L783.487 372.42L770.235 372.42L770.235 380.145L785.723 380.145ZM808.678 384.5L801.237 373.855L793.864 384.5L788.063 384.5L798.258 370.223L788.61 356.502L794.372 356.502L801.393 366.463L808.327 356.502L813.854 356.502L804.254 370.018L814.567 384.5L808.678 384.5ZM829.839 356.502Q833.413 356.502 836.06 357.703Q838.706 358.904 840.112 361.141Q841.528 363.377 841.528 366.463Q841.528 369.5 840.112 371.766Q838.706 374.021 836.06 375.223Q833.413 376.424 829.839 376.424L823.648 376.424L823.648 384.5L818.55 384.5L818.55 356.502L829.839 356.502ZM829.605 372.02Q832.935 372.02 834.663 370.584Q836.392 369.139 836.392 366.463Q836.392 363.777 834.663 362.342Q832.935 360.896 829.605 360.896L823.648 360.896L823.648 372.02L829.605 372.02ZM847 356.502L852.098 356.502L852.098 384.5L847 384.5L847 356.502ZM877.46 384.5L871.854 376.297Q871.503 376.336 870.79 376.336L864.598 376.336L864.598 384.5L859.501 384.5L859.501 356.502L870.79 356.502Q874.364 356.502 877.011 357.703Q879.657 358.904 881.063 361.141Q882.479 363.377 882.479 366.463Q882.479 369.617 880.966 371.902Q879.452 374.178 876.63 375.301L882.948 384.5L877.46 384.5ZM877.343 366.463Q877.343 363.777 875.614 362.342Q873.886 360.896 870.555 360.896L864.598 360.896L864.598 372.059L870.555 372.059Q873.886 372.059 875.614 370.604Q877.343 369.139 877.343 366.463ZM908.733 380.145L908.733 384.5L888.147 384.5L888.147 356.502L908.176 356.502L908.176 360.857L893.244 360.857L893.244 368.143L906.496 368.143L906.496 372.42L893.244 372.42L893.244 380.145L908.733 380.145ZM922.908 384.9Q919.734 384.9 916.775 383.982Q913.816 383.064 912.088 381.541L913.855 377.498Q915.545 378.855 917.986 379.725Q920.438 380.584 922.908 380.584Q925.965 380.584 927.479 379.588Q928.992 378.582 928.992 376.941Q928.992 375.74 928.143 374.959Q927.303 374.178 926.004 373.738Q924.715 373.299 922.479 372.742Q919.344 371.98 917.4 371.219Q915.467 370.457 914.07 368.846Q912.684 367.225 912.684 364.461Q912.684 362.137 913.914 360.242Q915.154 358.338 917.635 357.225Q920.125 356.102 923.738 356.102Q926.248 356.102 928.67 356.746Q931.102 357.381 932.869 358.582L931.258 362.615Q929.461 361.541 927.498 360.984Q925.535 360.418 923.699 360.418Q920.682 360.418 919.207 361.463Q917.742 362.498 917.742 364.217Q917.742 365.418 918.582 366.18Q919.422 366.941 920.711 367.381Q922.01 367.82 924.246 368.377Q927.303 369.1 929.256 369.881Q931.219 370.662 932.605 372.264Q934.002 373.855 934.002 376.58Q934.002 378.904 932.762 380.789Q931.531 382.664 929.021 383.787Q926.521 384.9 922.908 384.9ZM954.144 384.9Q951.517 384.9 949.301 383.846Q947.084 382.781 945.678 380.857L948.578 377.303Q950.853 380.496 954.027 380.496Q958.295 380.496 958.295 375.34L958.295 360.857L948.539 360.857L948.539 356.502L963.392 356.502L963.392 375.057Q963.392 379.979 961.039 382.439Q958.685 384.9 954.144 384.9ZM982.325 384.9Q976.642 384.9 973.458 381.639Q970.284 378.377 970.284 372.303L970.284 356.502L975.382 356.502L975.382 372.098Q975.382 380.34 982.365 380.34Q989.298 380.34 989.298 372.098L989.298 356.502L994.318 356.502L994.318 372.303Q994.318 378.377 991.163 381.639Q988.009 384.9 982.325 384.9ZM1025.82 356.502L1025.82 384.5L1021.63 384.5L1006.5 365.535L1006.5 384.5L1001.44 384.5L1001.44 356.502L1005.64 356.502L1020.76 375.457L1020.76 356.502L1025.82 356.502ZM1061.92 380.096L1061.92 384.5L1041.68 384.5L1041.68 381.023L1052.58 370.457Q1054.42 368.66 1055.07 367.322Q1055.72 365.984 1055.72 364.656Q1055.72 362.703 1054.42 361.668Q1053.14 360.623 1050.63 360.623Q1046.43 360.623 1044.19 363.543L1040.63 360.74Q1042.24 358.543 1044.96 357.322Q1047.69 356.102 1051.06 356.102Q1055.52 356.102 1058.18 358.26Q1060.85 360.418 1060.85 364.139Q1060.85 366.424 1059.91 368.426Q1058.98 370.418 1056.31 372.977L1048.98 380.096L1061.92 380.096ZM1076.29 384.9Q1073 384.9 1070.42 383.201Q1067.83 381.502 1066.33 378.24Q1064.85 374.979 1064.85 370.496Q1064.85 366.023 1066.33 362.762Q1067.83 359.5 1070.42 357.801Q1073 356.102 1076.29 356.102Q1079.59 356.102 1082.19 357.801Q1084.8 359.5 1086.28 362.762Q1087.78 366.023 1087.78 370.496Q1087.78 374.979 1086.28 378.24Q1084.8 381.502 1082.19 383.201Q1079.59 384.9 1076.29 384.9ZM1076.29 380.379Q1079.23 380.379 1080.93 377.898Q1082.64 375.418 1082.64 370.496Q1082.64 365.584 1080.93 363.104Q1079.23 360.623 1076.29 360.623Q1073.39 360.623 1071.69 363.104Q1069.98 365.584 1069.98 370.496Q1069.98 375.418 1071.69 377.898Q1073.39 380.379 1076.29 380.379ZM1111.1 380.096L1111.1 384.5L1090.86 384.5L1090.86 381.023L1101.76 370.457Q1103.61 368.66 1104.25 367.322Q1104.9 365.984 1104.9 364.656Q1104.9 362.703 1103.61 361.668Q1102.32 360.623 1099.81 360.623Q1095.61 360.623 1093.37 363.543L1089.81 360.74Q1091.42 358.543 1094.14 357.322Q1096.87 356.102 1100.24 356.102Q1104.7 356.102 1107.36 358.26Q1110.03 360.418 1110.03 364.139Q1110.03 366.424 1109.09 368.426Q1108.16 370.418 1105.49 372.977L1098.16 380.096L1111.1 380.096ZM1122.61 367.342Q1128.41 367.342 1131.2 369.646Q1133.98 371.941 1133.98 375.896Q1133.98 378.416 1132.76 380.457Q1131.55 382.498 1129.12 383.699Q1126.69 384.9 1123.12 384.9Q1120.18 384.9 1117.44 384.041Q1114.69 383.182 1112.81 381.658L1114.97 377.615Q1116.49 378.904 1118.63 379.646Q1120.77 380.379 1123.04 380.379Q1125.75 380.379 1127.29 379.246Q1128.84 378.104 1128.84 376.102Q1128.84 373.943 1127.17 372.84Q1125.51 371.736 1121.47 371.736L1114.85 371.736L1116.26 356.502L1132.37 356.502L1132.37 360.857L1120.57 360.857L1119.99 367.342L1122.61 367.342Z"/></svg>